<svg id="Calque_1" data-name="Calque 1" xmlns="http://www.w3.org/2000/svg" viewBox="0 0 1220.13 1846.6"><defs><style>.cls-1,.cls-2{stroke:#000;stroke-miterlimit:10;stroke-width:19px;}.cls-2,.cls-3{fill:#fff;}.cls-4{fill:#f21d1d;}.cls-5{fill:#7f0000;}.cls-6{fill:#adadad;}</style></defs><title>logo</title><path class="cls-1" d="M1000.6,1780.2c-488.3-308.5-599.2-610.6-599.2-610.6L781,941.3l452.8,9.2.5.5,364,218.6s-109.8,301.5-598.2,610" transform="translate(-389.78 -76.9)"/><polygon class="cls-2" points="847.12 240.4 610.22 102.6 373.32 240.4 244.12 470.9 401.92 862.3 610.22 1043.7 849.82 862.3 976.32 470.9 847.12 240.4"/><polygon points="610.22 672.8 345.32 569.4 376.52 623.2 431.52 764.8 570.42 869.8 610.22 835.4 651.12 869.8 805.12 759.4 845.02 623.2 854.32 607.2 876.52 569.5 610.22 672.8"/><polygon class="cls-3" points="632.32 707.8 677.52 740.1 751.82 707.8 805.72 630.2 632.32 707.8"/><polygon class="cls-3" points="593.52 705.6 548.32 737.9 474.02 705.6 420.22 628.1 593.52 705.6"/><polygon class="cls-4" points="610.22 113.4 610.22 221 610.22 428.9 642.52 457.9 623.12 471.9 577.92 460.1 610.22 512.9 610.22 650.7 710.42 608.7 700.42 637.7 876.22 569.9 869.72 623.8 851.42 779.9 654.42 882.2 610.22 869.3 651.12 926.4 610.22 951.1 610.72 1031.4 841.72 856.4 966.62 473 840.32 247 610.22 113.4"/><polygon points="827.72 769.1 855.92 604.4 876.22 569.9 851.42 779.9 694.22 861.7 827.72 769.1"/><polygon points="724.72 178.8 807.02 48.8 966.62 0 966.62 71 836.52 79.9 747.52 192.1 724.72 178.8"/><polyline points="750.62 178.4 842.02 119.5 929.12 144 906.22 214.9 827.42 178.4 762.52 186.8"/><polyline points="610.22 650.7 325.92 533.3 323.82 592.5 249.52 470.9 376.52 242.6 529.52 157.5 610.22 113.4 610.22 428.9 642.52 457.9 624.22 473 580.12 462.2 610.22 512.9"/><polygon points="374.42 700.2 420.72 772.4 548.32 878.4 553.72 947.4 420.22 851.5 374.42 700.2"/><polygon class="cls-5" points="631.82 154.3 631.82 290 776.02 364.3 898.82 483.8 887.02 648.5 951.62 480.6 833.12 257.7 631.82 154.3"/><polygon class="cls-3" points="599.72 134 378.62 256.3 267.62 466.3 310.22 446.3 393.12 274 599.82 134.1 599.72 134"/><path class="cls-3" d="M982.8,1719.3c-273.5-109.8-538.4-549.2-538.4-549.2l60.3-32.3a954.79,954.79,0,0,0,107.7,109.8s-45.2-66.8-53.8-137.8l38.8-21.5s38.8,128.1,75.4,164.8c0,0-43.1-135.7-33.4-184.1l48.5-25.8c-.2-.1,154.9,549.1,294.9,676.1" transform="translate(-389.78 -76.9)"/><path class="cls-4" d="M1019.4,1719.3c273.5-109.8,538.4-549.2,538.4-549.2l-60.3-32.3a954.79,954.79,0,0,1-107.7,109.8s45.2-66.8,53.8-137.8l-38.8-21.5s-38.8,128.1-75.4,164.8c0,0,43.1-135.7,33.4-184.1l-48.5-25.8c.1-.1-154.9,549.1-294.9,676.1" transform="translate(-389.78 -76.9)"/><path class="cls-3" d="M794.3,1052.8s-2.2,131.4,24.8,173.4c0,0,64.6,42,143.2,49.5,0,0-49.5,42-128.1,24.8l50.6,103.4s34.5,19.4,98,8.6c0,0-18.3,43.1-74.3,38.8l91.5,204.6s219.7-370.4,212.1-603L1000,1155.1Z" transform="translate(-389.78 -76.9)"/><path class="cls-4" d="M1003.2,1173.4v130.3L1084,1280l-80.8,101.2v241.2s198.1-366.1,191.7-533Z" transform="translate(-389.78 -76.9)"/><path d="M820.2,1089.4s-2.2,98,18.3,118.4,144.3,62.5,144.3,62.5v-99.1Z" transform="translate(-389.78 -76.9)"/><polygon class="cls-3" points="625.32 996.3 824.52 847.7 854.72 783.1 837.42 851 625.32 1010.3 625.32 996.3"/><path d="M1357,1819.9l9.2-49.8h-55.1V1650l23.2-39.5h12v-20.3l36.7-62.3-36.7-12.9v-65.5h-394l6.6-24.3-109.3,24.3H608.9v53.4l-17.2,3.8,17.2,25.6v57.2h28.2l-14,33.5-41.9,10.4,31.7,91.6a283.86,283.86,0,0,1-10.7,34.3L481,1758l70.6,68.8,89.1,52.9,31-25.8c13.3,16,52.9,25.8,76.4,25.8H997l.4.4.6-.4h363.9l85.6-50.3Z" transform="translate(-389.78 -76.9)"/><polygon points="209.22 1752.8 250.82 1802.8 281.72 1777 239.12 1724 209.22 1752.8"/><path d="M1345.3,1528h38q-19.35-80.55-38.7-161H623.2q-15.75,70.05-31.5,140h30.1c-7.3,11.2-14.7,22.4-22.2,33.5-15.9,3.5-32,6.9-48.1,10.4,4.2,30.5,8.9,61.1,14.3,91.6-11.4,23-28.5,48.2-51.7,75.2q-16.5,20.25-33.5,40.4,57,35.85,118.7,71.7c10.1-9.5,20-19,29.9-28.6,13.8,16,36.6,28.6,66.5,28.6h316.4c.2.1.3.3.5.4.2-.1.5-.3.7-.4h434.2q0-71.1-2.5-142.1h-65Q1362.75,1607.75,1345.3,1528Z" transform="translate(-389.78 -76.9)"/><path class="cls-3" d="M1212.1,1399.8c-2.8,15.5-5.8,31-8.9,46.4H1141c7.1-6.2,14.2-12.5,21.1-18.7-11.9-14.7-11.7-15.1-23.9-25.3-7.3,6.8-14.8,13.6-22.4,20.4,14.6,14.7,13.4,14.6,20.5,23.6h-68.4c.5,9.1,1.1,18.1,1.6,27.2h107.4c-2.4,10.8-4.8,21.5-7.3,32.3h-62.8q8.7,109.65,17.5,219.2h30.9c-.6-6.2-1.2-12.5-1.8-18.7h142.4c.7,4,1.4,7.9,2,11.9h30.8l-39.9-212.4h-88.6c4.4-10.8,8.8-21.5,13-32.3H1319c-1.9-9.1-3.8-18.1-5.7-27.2h-83.9c5.1-12.4,10-24.9,14.7-37.3C1233.5,1405.9,1222.8,1402.9,1212.1,1399.8Zm79.2,279.3H1151c-1-10.8-2.1-21.5-3.1-32.3h137.9C1287.6,1657.5,1289.5,1668.3,1291.3,1679.1Zm-10.2-59.5H1145.3c-.9-9.6-1.9-19.3-2.8-28.9h133.6C1277.8,1600.3,1279.5,1610,1281.1,1619.6Zm-14.9-86.7c1.7,10.2,3.5,20.4,5.2,30.6H1139.8c-1-10.2-2-20.4-2.9-30.6Z" transform="translate(-389.78 -76.9)"/><path class="cls-3" d="M1164.4,1741.9c-40.4,0-73.3-11.9-97.3-35.7q-3.45-69.6-7-139.3H971.6v32.3h56.1q1.65,53.55,3.4,107.1c-21.3,11.3-42.9,22.7-65,34,6.7,13,13.5,26.1,20.5,39.1,16.1-9.1,37.1-24.9,61.7-47.6,32.8,28.3,69.5,42.5,108.1,42.5H1386c.2-10.8.4-21.5.5-32.3Q1275.5,1741.85,1164.4,1741.9Z" transform="translate(-389.78 -76.9)"/><path class="cls-3" d="M1030.8,1493.8c9.3-8.5,18.4-17,27.5-25.5-14.7-19.2-34.2-40.2-57.8-62.9-7.9,7.4-16,14.7-24.2,22.1C997.8,1450.3,1016.2,1472.3,1030.8,1493.8Z" transform="translate(-389.78 -76.9)"/><path class="cls-3" d="M615.2,1590.2c1.9,10.2,3.9,20.4,5.9,30.6,66.5-11.3,117.8-38.5,152.2-81.6,16.5,9.1,33.8,18.1,51.9,27.2,6.5-11.3,12.9-22.7,19.2-34a426.42,426.42,0,0,0-56.1-25.5c10.8-20.4,16.8-38.5,18.4-54.4h96.7q-8.7,59.4-18.4,118.9c-1.5,6.8-6.1,10.2-14,10.2H828.9c.3,10.8.5,21.5.8,32.3H876c25.2,0,40-14.7,44.1-44.2q10.5-74.7,19.7-149.5H660c-2.1,10.8-4.2,21.5-6.3,32.3H773.8a177.87,177.87,0,0,1-14.7,42.5q-32.25-10.2-62.8-17c-5.8,9.6-11.7,19.3-17.7,28.9,23.5,6.8,44.7,13.6,63.3,20.4Q703.65,1571.55,615.2,1590.2Z" transform="translate(-389.78 -76.9)"/><path class="cls-3" d="M738.3,1619.1A183,183,0,0,1,780,1682c12-6.8,23.8-13.6,35.5-20.4-14.1-27.2-29.8-48.1-47.4-62.9C758.3,1605.5,748.3,1612.3,738.3,1619.1Z" transform="translate(-389.78 -76.9)"/><path class="cls-3" d="M621.4,1646.3c-12.8,30.6-33.4,63.5-63,98.6,10.9,6.2,22,12.5,33.1,18.7,25.4-28.3,50.8-71.4,66.1-106.6C645.4,1653.4,633.4,1649.9,621.4,1646.3Z" transform="translate(-389.78 -76.9)"/><path class="cls-3" d="M689.9,1642.9c-5.1,32.9-10.1,65.7-15.2,98.6-2.7,16.9,10.3,30.6,28.8,30.6H824.7c16.2,0,28.6-8.5,36.9-25.5q8.4-17.85,16.5-35.7c-13.1-2.8-26.2-5.7-39.1-8.5-3.7,9.6-7.4,19.3-11.2,28.9-1.7,5.7-6.1,8.5-13.5,8.5H720.8q-9.15,0-7.8-10.2c3.9-28.6,7.8-57.3,11.7-85.9C713.1,1643.4,701.5,1643.2,689.9,1642.9Z" transform="translate(-389.78 -76.9)"/><path class="cls-3" d="M902.5,1641.2c-10.7,7.4-21.6,14.7-32.5,22.1,25.6,29.5,28.5,31.1,42,58.3,12.4-7.9,24.6-15.9,36.6-23.8C934.7,1674.1,930.5,1673,902.5,1641.2Z" transform="translate(-389.78 -76.9)"/><path class="cls-6" d="M1552.8,915.3" transform="translate(-389.78 -76.9)"/><path class="cls-6" d="M1474.3,712" transform="translate(-389.78 -76.9)"/><polyline points="160.02 1846.6 1017.52 1846.6 1017.52 1731.8 160.02 1731.8"/><path class="cls-3" d="M571.3,1887.2l4.1-1.5v-42.6h18.9v34.7l4.5-2.4a85.54,85.54,0,0,0,10.9-7.2l4.6-3.5,10.9,16-4.1,3.2a111,111,0,0,1-18.2,11.4,181.64,181.64,0,0,1-19.4,8.2l-5,1.7Z" transform="translate(-389.78 -76.9)"/><path d="M588.8,1848.7v37.8a99.68,99.68,0,0,0,12.7-6.2,108.83,108.83,0,0,0,11.5-7.6l4.7,6.9a100.1,100.1,0,0,1-17.3,10.8,162.52,162.52,0,0,1-18.8,7.9l-3.1-7.8,2.4-.9v-41h7.9m11-10.9H569.9v44.2l-5.8,2,4.1,10.6,3.1,7.8,3.9,9.9,10-3.5a194.19,194.19,0,0,0,20.1-8.4,112.24,112.24,0,0,0,19.2-12l8.2-6.3-5.8-8.6-4.7-6.9-6.5-9.6-9.2,7c-2.1,1.6-4.3,3.1-6.5,4.5v-30.7Z" transform="translate(-389.78 -76.9)"/><path class="cls-3" d="M650.2,1894.8l-31.6,8-6.8-10.6,24.2-53.1,17.2,8.1-5.7,12.4,6.4-2.9,18.2,40.2-17.3,7.9Zm-11.1-17,2.9-.8-1.3-2.8Z" transform="translate(-389.78 -76.9)"/><path d="M638.7,1846.5l7.3,3.4-16.7,36.3,20.5-5.5-5.9-13.3,7.4-3.3,13.7,30.2-7.3,3.3-4.3-9.1-32.2,8.2-3.1-4.8,20.6-45.4m-5.4-14.7-4.6,10.1-20.6,45.3-2.5,5.5,3.2,5,3.1,4.8,4.3,6.7,7.7-2,23.3-5.9.4.9,4.6,9.9,9.9-4.5,7.3-3.3,10-4.6-4.5-10-13.7-30.2-3.8-8.3,3-6.6-9.9-4.6-7.3-3.4-9.9-4.8Z" transform="translate(-389.78 -76.9)"/><path class="cls-3" d="M722.5,1901.2c-2.1-3.3-4.4-6.5-6.8-9.6-1.8-2.3-3.6-4.5-5.5-6.6v16.6h-19v-37.8h-6.7v-19.5h6.7v-5.8h19v5.8h27.7l2.7,15.2-2.2,2a98.7,98.7,0,0,1-12.6,10c-.4.2-.7.5-1.1.7a177.39,177.39,0,0,1,13.6,17.8l2.9,4.2-15.3,12Z" transform="translate(-389.78 -76.9)"/><path d="M704.6,1844v5.8h28.6l1.4,7.7a105.39,105.39,0,0,1-11.9,9.5,138.26,138.26,0,0,1-12.3,7.4l-4.1-7.2c2.8-1.3,5.4-2.7,7.8-4.1s4.8-3.1,7.1-4.8H704.8v37.8h-8v-37.8H690v-8.5h6.7V1844h7.9m14,29.9a173.55,173.55,0,0,1,15,19.3l-6.5,5.1a119.94,119.94,0,0,0-7.1-10c-2.5-3.2-5.2-6.3-7.9-9.2l6.5-5.2m-3-40.9h-30v5.8H679v30.5h6.7v37.8h30v-6.2c.8,1.1,1.5,2.2,2.2,3.3l6.5,10.1,9.5-7.4,6.5-5.1,8.1-6.3-5.7-8.5c-3.2-4.8-6.6-9.3-10.1-13.6a114.27,114.27,0,0,0,9.4-7.8l4.4-4.1-1-5.9-1.4-7.7-1.6-9.1H715.7V1833Z" transform="translate(-389.78 -76.9)"/><path class="cls-3" d="M764.3,1901.6v-3.4H752.7v3.4H733.8v-58.4h49.4v58.4Zm0-22.9v-16.1H752.7v16.1Z" transform="translate(-389.78 -76.9)"/><path d="M777.7,1848.7v47.4h-7.9v-3.4H747.2v3.4h-7.9v-47.4h38.4m-30.5,35.5h22.6v-27.1H747.2v27.1m41.5-46.5H728.3v69.4h29.9v-3.4h.6v3.4h29.9v-69.4Zm-30.5,30.4h.6v5.1h-.6v-5.1Z" transform="translate(-389.78 -76.9)"/><polygon class="cls-3" points="420.22 1824.7 420.22 1821.3 408.52 1821.3 408.52 1824.7 389.62 1824.7 389.62 1766.3 408.52 1766.3 408.52 1801.8 420.22 1801.8 420.22 1766.3 439.02 1766.3 439.02 1824.7 420.22 1824.7"/><path d="M823.3,1848.7v47.4h-7.9v-3.4H792.8v3.4h-7.9v-47.4h7.9v35.6h22.6v-35.6h7.9m11-11H804.4v35.6h-.6v-35.6H773.9v69.4h29.9v-3.4h.6v3.4h29.9v-69.4Z" transform="translate(-389.78 -76.9)"/><path class="cls-3" d="M826.9,1882.7h6.8a4.19,4.19,0,0,0,2.2-.5,7.39,7.39,0,0,0,1.7-2.5,16.32,16.32,0,0,0,1-4.6c.1-1.6.2-3.1.2-4.5H823.7v-19.5h15.1v-12.7h18.9v12.7h15.1v19.5H857.7a65.55,65.55,0,0,1-.5,7.3,37.88,37.88,0,0,1-2.5,9.9,25.35,25.35,0,0,1-6.3,9,22.27,22.27,0,0,1-11.9,5.4l-5.2.9Z" transform="translate(-389.78 -76.9)"/><path d="M852.2,1844v12.7h15.1v8.5H852.2v4.4a77.79,77.79,0,0,1-.5,7.8,28.93,28.93,0,0,1-2.1,8.3,19.19,19.19,0,0,1-5,7,17.88,17.88,0,0,1-9.1,4.1l-1.8-8.5a8.12,8.12,0,0,0,5.8-1.9,11.93,11.93,0,0,0,3.2-4.7,23.6,23.6,0,0,0,1.3-6.1c.2-2.2.2-4.2.2-6v-4.4H829.1v-8.5h15.1V1844h8m11-11H833.3v12.7H818.2v30.5h14.7c-.1.4-.2.8-.3,1.1H820l2.9,13.3,1.8,8.5,2.2,10.3,10.4-1.8a27.94,27.94,0,0,0,14.7-6.8,31.87,31.87,0,0,0,7.7-10.9,40.67,40.67,0,0,0,2.9-11.4,19.42,19.42,0,0,0,.2-2.4h15.4v-30.5H863.1V1833Z" transform="translate(-389.78 -76.9)"/><path class="cls-3" d="M891.3,1901.6a22.87,22.87,0,0,1-8.3-1.4,15.86,15.86,0,0,1-6.5-4.5,17.53,17.53,0,0,1-3.5-7.1,32,32,0,0,1-.9-8v-1.1h-6.8V1860h1.4v-16.9h45.1V1860h8.5v19.5H891v1.1a6.62,6.62,0,0,0,.1,1.5h28l-4.4,19.5Z" transform="translate(-389.78 -76.9)"/><path d="M906.3,1848.7v8.5H885.5v8.4h29.3v8.5H885.5v6.6a9.44,9.44,0,0,0,1.2,5.3c.8,1.1,2.4,1.7,4.7,1.7h20.8l-1.9,8.5H891.2a17.56,17.56,0,0,1-6.4-1,10.24,10.24,0,0,1-4.3-2.9,10.76,10.76,0,0,1-2.3-4.8,27,27,0,0,1-.7-6.7v-6.6h-6.8v-8.5h6.8v-8.4h-5.3v-8.5h34.1m11-11.1H861.2v16.9h-1.4v30.5h7a37.33,37.33,0,0,0,.8,5,21.63,21.63,0,0,0,13.4,15.4,30.06,30.06,0,0,0,10.3,1.7h27.9l1.9-8.6,1.9-8.5,1.1-5h1.7v-7.5l.2-.9h-.2v-22.1h-8.5v-16.9Z" transform="translate(-389.78 -76.9)"/><path class="cls-3" d="M937,1882.2h7.4a29.32,29.32,0,0,0,8.8-1.3,20.94,20.94,0,0,0,2.3-.8H937.1v-37h49.4v21a35.43,35.43,0,0,1-3.4,15.6,34.87,34.87,0,0,1-9,11.5,39.69,39.69,0,0,1-12.5,7.2,53.75,53.75,0,0,1-14.3,3.1l-4.4.3Zm19-2.2a22.72,22.72,0,0,0,4.8-2.7,16.84,16.84,0,0,0,5-5.6,13.26,13.26,0,0,0,1.8-7v-2H956Z" transform="translate(-389.78 -76.9)"/><path d="M981,1848.7v15.5a28.58,28.58,0,0,1-10.4,22.9,37.92,37.92,0,0,1-10.9,6.3,50.47,50.47,0,0,1-12.8,2.8l-2.5-8.4a36.84,36.84,0,0,0,10.4-1.5,29.21,29.21,0,0,0,9.2-4.5,22.69,22.69,0,0,0,6.5-7.3,18.81,18.81,0,0,0,2.5-9.8v-7.5H950.5v17.5h-7.9v-26H981m11-11H931.6v39.1h-1.9l1.9,6.4v2.5h.8l1.5,5.2,2.5,8.4,2.5,8.5,8.8-.7a61.08,61.08,0,0,0,15.8-3.4,48.81,48.81,0,0,0,14.2-8.2,40.34,40.34,0,0,0,10.3-13.2,39.49,39.49,0,0,0,4-18.1v-26.5Z" transform="translate(-389.78 -76.9)"/><polygon class="cls-3" points="622.92 1824.7 622.92 1821.3 611.32 1821.3 611.32 1824.7 592.42 1824.7 592.42 1766.3 611.32 1766.3 611.32 1801.8 622.92 1801.8 622.92 1766.3 641.82 1766.3 641.82 1824.7 622.92 1824.7"/><path d="M1026.1,1848.7v47.4h-7.9v-3.4H995.6v3.4h-7.9v-47.4h7.9v35.6h22.6v-35.6h7.9m11-11h-29.9v35.6h-.6v-35.6H976.7v69.4h29.9v-3.4h.6v3.4h29.9v-69.4Z" transform="translate(-389.78 -76.9)"/><path class="cls-3" d="M1051.4,1901.6v-19.5h30.8c0-.3.1-.8.1-1.5v-1.3h-12.9c-6,0-9.5-2.5-11.4-4.5-2.6-2.9-4-6.8-4-11.6v-.7h-4.8V1843h52.2v16.7h2.1v19.5h-2.4v1.3a32,32,0,0,1-.9,8,18.19,18.19,0,0,1-3.5,7.1,15.86,15.86,0,0,1-6.5,4.5,23.66,23.66,0,0,1-8.3,1.4h-30.5Z" transform="translate(-389.78 -76.9)"/><path d="M1096,1848.7v8.5h-28.5v6.2a2.54,2.54,0,0,0,.4,1.6,2.17,2.17,0,0,0,1.6.5h28.7v8.5h-2.4v6.8a26.51,26.51,0,0,1-.7,6.7,13.4,13.4,0,0,1-2.3,4.8,9.4,9.4,0,0,1-4.3,2.9,17.56,17.56,0,0,1-6.4,1h-25v-8.5H1082c2.4,0,4-.6,4.8-1.7s1.2-2.9,1.2-5.3v-6.8h-18.4c-3.2,0-5.7-.9-7.4-2.7s-2.5-4.4-2.5-7.9v-6.2h-4.8v-8.5H1096m11-10.9h-63.2v30.5h5.2a21.42,21.42,0,0,0,3.4,8.5h-6.5v30.5h36a30.06,30.06,0,0,0,10.3-1.7,20.85,20.85,0,0,0,8.7-6.1,22.75,22.75,0,0,0,4.7-9.3,27.18,27.18,0,0,0,.8-5.1h2.6v-30.5h-2.1v-16.8Z" transform="translate(-389.78 -76.9)"/><path class="cls-3" d="M1099.6,1896.1l3.2-5.2a16.43,16.43,0,0,0,2.3-5.3,22.2,22.2,0,0,0,.7-5.9v-2.3h-9V1858h9v-17.4h18.9V1858h29.9v19.5h-3.1v3.2a32,32,0,0,1-.9,8,18.19,18.19,0,0,1-3.5,7.1,15.86,15.86,0,0,1-6.5,4.5,23.66,23.66,0,0,1-8.3,1.4h-5.6l-3-12.8-.3,1.2a38.29,38.29,0,0,1-3.8,9.9l-2.5,4.6Zm32.5-13.9h.4a5.76,5.76,0,0,0,.1-1.5v-3.2h-7.9v2.2a21.75,21.75,0,0,1-.1,2.5Z" transform="translate(-389.78 -76.9)"/><path d="M1119.2,1846.2v17.4h29.9v8.5H1146v8.7a26.51,26.51,0,0,1-.7,6.7,13.4,13.4,0,0,1-2.3,4.8,9.4,9.4,0,0,1-4.3,2.9,17.56,17.56,0,0,1-6.4,1h-1.2l-2-8.5h3.1c2.3,0,3.9-.6,4.7-1.7s1.2-2.9,1.2-5.3V1872h-18.9v7.7a40.43,40.43,0,0,1-1.1,9.1,33.26,33.26,0,0,1-3.3,8.6l-7.3-3.6a24,24,0,0,0,3-6.8,28.63,28.63,0,0,0,.9-7.3v-7.8h-9v-8.5h9V1846h7.8m11-10.8h-29.9v17.4h-9v30.5h8.8c-.1.4-.2.9-.3,1.3a13.94,13.94,0,0,1-1.7,3.8l-6.4,10.4,10.9,5.3,7.3,3.6,9.5,4.6,2.8-5.2.1.4h9.9a30.06,30.06,0,0,0,10.3-1.7,20.85,20.85,0,0,0,8.7-6.1,22.75,22.75,0,0,0,4.7-9.3,36.87,36.87,0,0,0,1-7h3.2v-30.5h-29.9v-17.5Z" transform="translate(-389.78 -76.9)"/><polygon class="cls-3" points="754.62 1824.7 754.62 1805.3 771.32 1805.3 771.32 1785.7 759.02 1785.7 759.02 1766.3 802.62 1766.3 802.62 1785.7 790.22 1785.7 790.22 1805.3 806.92 1805.3 806.92 1824.7 754.62 1824.7"/><path d="M1186.9,1848.7v8.5h-12.4v30.5h16.7v8.5h-41.3v-8.5h16.6v-30.5h-12.3v-8.5h32.7m11-11h-54.6v30.5h12.3v8.5H1139v30.5h63.3v-30.5h-16.7v-8.5H1198v-30.5Z" transform="translate(-389.78 -76.9)"/><path class="cls-3" d="M1216.3,1901.6l-4.6-19.5H1222a5.76,5.76,0,0,0,.1-1.5v-16.5h-11.6v37.4h-18.9v-56.9h15.2v-6.3h19v6.3h16.9v19.5H1241v16.5a32,32,0,0,1-.9,8,18.19,18.19,0,0,1-3.5,7.1,15.86,15.86,0,0,1-6.5,4.5,23.66,23.66,0,0,1-8.3,1.4Z" transform="translate(-389.78 -76.9)"/><path d="M1220.2,1844v6.3h16.9v8.5h-1.7v22a26.51,26.51,0,0,1-.7,6.7,13.4,13.4,0,0,1-2.3,4.8,9.4,9.4,0,0,1-4.3,2.9,17.56,17.56,0,0,1-6.4,1h-1.1l-2-8.5h2.9c2.3,0,3.9-.6,4.7-1.7s1.2-2.9,1.2-5.3v-22h-22.6v37.4h-7.9v-45.9h15.2v-6.3h8.1m11-10.9h-30v6.3H1186v67.9h35.7a30.06,30.06,0,0,0,10.3-1.7,20.85,20.85,0,0,0,8.7-6.1,22.75,22.75,0,0,0,4.7-9.3,38.73,38.73,0,0,0,1-9.4v-11h1.7v-30.5h-16.9V1833Zm-15.3,36.7h.6v7h-.6v-7Z" transform="translate(-389.78 -76.9)"/><path class="cls-3" d="M1268.2,1901.6v-3.4h-11.6v3.4h-18.9v-58.4h49.4v58.4Zm0-22.9v-16.1h-11.6v16.1Z" transform="translate(-389.78 -76.9)"/><path d="M1281.6,1848.7v47.4h-7.9v-3.4h-22.6v3.4h-7.9v-47.4h38.4m-30.5,35.5h22.6v-27.1h-22.6v27.1m41.5-46.5h-60.4v69.4h29.9v-3.4h.6v3.4h29.9v-69.4Zm-30.5,30.4h.6v5.1h-.6v-5.1Z" transform="translate(-389.78 -76.9)"/><path class="cls-3" d="M1281.2,1882.7h6.8a4.19,4.19,0,0,0,2.2-.5,7.39,7.39,0,0,0,1.7-2.5,16.32,16.32,0,0,0,1-4.6,55.27,55.27,0,0,0,.2-5.6v-6.9h-9.3v-19.5h42.9v16.8h11.7v20.7c0,6.3-1.4,11.3-4.2,14.9-3.1,4-8.2,6-14.9,6h-13.8v-7.9a19.91,19.91,0,0,1-2.8,3,22.27,22.27,0,0,1-11.9,5.4l-5.2.9Zm37.9-.5h.3c0-.3.1-.8.1-1.5v-1.2h-8.2a25.58,25.58,0,0,1-.5,2.7Z" transform="translate(-389.78 -76.9)"/><path d="M1321.2,1848.7v16.8h11.7v15.2c0,5.1-1,8.9-3.1,11.5s-5.6,3.9-10.6,3.9h-8.3v-8.5h8.1c2.3,0,3.9-.6,4.7-1.7s1.2-2.9,1.2-5.3v-6.7h-11.7V1857h-6.8v12.4a77.79,77.79,0,0,1-.5,7.8,28.93,28.93,0,0,1-2.1,8.3,19.19,19.19,0,0,1-5,7,17.88,17.88,0,0,1-9.1,4.1l-1.8-8.5a8.12,8.12,0,0,0,5.8-1.9,11.93,11.93,0,0,0,3.2-4.7,23.6,23.6,0,0,0,1.3-6.1c.2-2.2.2-4.2.2-6V1857h-9.3v-8.5h32.1m11-10.8h-53.9v30.5h9.3v1.4c0,1.6-.1,3.3-.2,5.2a9.23,9.23,0,0,1-.5,2.5h-12.6l2.9,13.3,1.8,8.5,2.2,10.3,10.4-1.8a35,35,0,0,0,8.3-2.5v2.1h19.3c10.7,0,16.4-4.4,19.3-8.1q5.4-6.9,5.4-18.3v-26.2h-11.7v-16.9Z" transform="translate(-389.78 -76.9)"/><polygon class="cls-3" points="942.22 1824.7 942.22 1805.3 958.82 1805.3 958.82 1785.7 946.52 1785.7 946.52 1766.3 990.22 1766.3 990.22 1785.7 977.82 1785.7 977.82 1805.3 994.52 1805.3 994.52 1824.7 942.22 1824.7"/><path d="M1374.5,1848.7v8.5h-12.4v30.5h16.7v8.5h-41.3v-8.5h16.6v-30.5h-12.3v-8.5h32.7m11-11h-54.6v30.5h12.3v8.5h-16.6v30.5h63.3v-30.5h-16.7v-8.5h12.4v-30.5Z" transform="translate(-389.78 -76.9)"/><path class="cls-3" d="M578.5,1890.5l2.4-.9v-41h7.9v37.8a99.68,99.68,0,0,0,12.7-6.2,108.83,108.83,0,0,0,11.5-7.6l4.7,6.9a100.1,100.1,0,0,1-17.3,10.8,162.52,162.52,0,0,1-18.8,7.9Z" transform="translate(-389.78 -76.9)"/><path class="cls-3" d="M618.1,1891.8l20.6-45.3,7.3,3.4-16.7,36.3,20.5-5.5-5.9-13.3,7.4-3.3,13.7,30.2-7.3,3.3-4.3-9.1-32.2,8.2Z" transform="translate(-389.78 -76.9)"/><path class="cls-3" d="M690,1849.8h6.7V1844h8v5.8h28.6l1.4,7.7a105.39,105.39,0,0,1-11.9,9.5,138.26,138.26,0,0,1-12.3,7.4l-4.1-7.2c2.8-1.3,5.4-2.7,7.8-4.1s4.8-3.1,7.1-4.8H704.9v37.8h-8v-37.8H690Zm28.6,24.1a173.55,173.55,0,0,1,15,19.3l-6.5,5.1a119.94,119.94,0,0,0-7.1-10c-2.5-3.2-5.2-6.3-7.9-9.2Z" transform="translate(-389.78 -76.9)"/><path class="cls-3" d="M777.7,1896.1h-7.9v-3.4H747.2v3.4h-7.9v-47.4h38.4Zm-7.9-11.9v-27.1H747.2v27.1Z" transform="translate(-389.78 -76.9)"/><path class="cls-3" d="M815.5,1884.2v-35.6h7.9V1896h-7.9v-3.4H792.9v3.4H785v-47.4h7.9v35.6Z" transform="translate(-389.78 -76.9)"/><path class="cls-3" d="M867.3,1865.1H852.2v4.4a77.79,77.79,0,0,1-.5,7.8,28.93,28.93,0,0,1-2.1,8.3,19.19,19.19,0,0,1-5,7,17.88,17.88,0,0,1-9.1,4.1l-1.8-8.5a8.12,8.12,0,0,0,5.8-1.9,11.93,11.93,0,0,0,3.2-4.7,23.6,23.6,0,0,0,1.3-6.1c.2-2.2.2-4.2.2-6v-4.4H829.1v-8.5h15.1V1844h7.9v12.7h15.1v8.4Z" transform="translate(-389.78 -76.9)"/><path class="cls-3" d="M872.2,1848.7h34.1v8.5H885.5v8.4h29.3v8.5H885.5v6.6a9.44,9.44,0,0,0,1.2,5.3c.8,1.1,2.4,1.7,4.7,1.7h20.8l-1.9,8.5H891.2a17.56,17.56,0,0,1-6.4-1,10.24,10.24,0,0,1-4.3-2.9,10.76,10.76,0,0,1-2.3-4.8,27,27,0,0,1-.7-6.7v-6.6h-6.8v-8.5h6.8v-8.4h-5.3Z" transform="translate(-389.78 -76.9)"/><path class="cls-3" d="M973,1857.1H950.5v17.5h-7.9v-26H981v15.5a28.58,28.58,0,0,1-10.4,22.9,37.92,37.92,0,0,1-10.9,6.3,50.47,50.47,0,0,1-12.8,2.8l-2.5-8.4a36.84,36.84,0,0,0,10.4-1.5,29.21,29.21,0,0,0,9.2-4.5,22.69,22.69,0,0,0,6.5-7.3,18.81,18.81,0,0,0,2.5-9.8v-7.5Z" transform="translate(-389.78 -76.9)"/><path class="cls-3" d="M1018.2,1884.2v-35.6h7.9V1896h-7.9v-3.4H995.6v3.4h-7.9v-47.4h7.9v35.6Z" transform="translate(-389.78 -76.9)"/><path class="cls-3" d="M1095.7,1873.9v6.8a26.51,26.51,0,0,1-.7,6.7,13.4,13.4,0,0,1-2.3,4.8,9.4,9.4,0,0,1-4.3,2.9,17.56,17.56,0,0,1-6.4,1h-25v-8.5h24.9c2.4,0,4-.6,4.8-1.7s1.2-2.9,1.2-5.3v-6.8h-18.4c-3.2,0-5.7-.9-7.4-2.7s-2.5-4.4-2.5-7.9V1857h-4.8v-8.5H1096v8.5h-28.5v6.2a2.54,2.54,0,0,0,.4,1.6,2.17,2.17,0,0,0,1.6.5h28.7v8.5h-2.5Z" transform="translate(-389.78 -76.9)"/><path class="cls-3" d="M1119.2,1863.5h29.9v8.5H1146v8.7a26.51,26.51,0,0,1-.7,6.7,13.4,13.4,0,0,1-2.3,4.8,9.4,9.4,0,0,1-4.3,2.9,17.56,17.56,0,0,1-6.4,1h-1.2l-2-8.5h3.1c2.3,0,3.9-.6,4.7-1.7s1.2-2.9,1.2-5.3v-8.7h-18.9v7.7a40.43,40.43,0,0,1-1.1,9.1,33.26,33.26,0,0,1-3.3,8.6l-7.3-3.6a24,24,0,0,0,3-6.8,28.63,28.63,0,0,0,.9-7.3v-7.8h-9v-8.5h9v-17.4h7.9v17.6Z" transform="translate(-389.78 -76.9)"/><path class="cls-3" d="M1154.3,1848.7h32.6v8.5h-12.4v30.5h16.7v8.5h-41.3v-8.5h16.6v-30.5h-12.3v-8.5Z" transform="translate(-389.78 -76.9)"/><path class="cls-3" d="M1204.9,1896.1H1197v-45.9h15.2v-6.3h8v6.3h16.9v8.5h-1.7v22a26.51,26.51,0,0,1-.7,6.7,13.4,13.4,0,0,1-2.3,4.8,9.4,9.4,0,0,1-4.3,2.9,17.56,17.56,0,0,1-6.4,1h-1.1l-2-8.5h2.9c2.3,0,3.9-.6,4.7-1.7s1.2-2.9,1.2-5.3v-22h-22.6v37.5Z" transform="translate(-389.78 -76.9)"/><path class="cls-3" d="M1281.6,1896.1h-7.9v-3.4h-22.6v3.4h-7.9v-47.4h38.4Zm-7.9-11.9v-27.1h-22.6v27.1Z" transform="translate(-389.78 -76.9)"/><path class="cls-3" d="M1332.9,1880.7c0,5.1-1,8.9-3.1,11.5s-5.6,3.9-10.6,3.9h-8.3v-8.5h8.1c2.3,0,3.9-.6,4.7-1.7s1.2-2.9,1.2-5.3v-6.7h-11.7V1857h-6.8v12.4a77.79,77.79,0,0,1-.5,7.8,28.93,28.93,0,0,1-2.1,8.3,19.19,19.19,0,0,1-5,7,17.88,17.88,0,0,1-9.1,4.1l-1.8-8.5a8.12,8.12,0,0,0,5.8-1.9,11.93,11.93,0,0,0,3.2-4.7,23.6,23.6,0,0,0,1.3-6.1c.2-2.2.2-4.2.2-6V1857h-9.3v-8.5H1321v16.8h11.7v15.4Z" transform="translate(-389.78 -76.9)"/><path class="cls-3" d="M1341.8,1848.7h32.6v8.5H1362v30.5h16.7v8.5h-41.3v-8.5H1354v-30.5h-12.3v-8.5Z" transform="translate(-389.78 -76.9)"/><polygon class="cls-3" points="707.12 727.2 721.42 782.9 736.12 714.1 707.12 727.2"/><path d="M886.8,1367l-25.6-46.6s71.6,20.5,121.4-24.9V1367Z" transform="translate(-389.78 -76.9)"/></svg>